<svg version="1.1" preserveAspectRatio="none" xmlns="http://www.w3.org/2000/svg" width="500" height="500" viewBox="0 0 500 500"><rect width="100%" height="100%" fill="#F7F4F2" fill-opacity="1"/><svg viewBox="29.7743 111.4693 379.028 187.0304" width="333" height="164.31800078094494" x="83.5px" y="167.841px" xmlns="http://www.w3.org/2000/svg" xmlns:xlink="http://www.w3.org/1999/xlink" preserveAspectRatio="none"><defs></defs><style>.companyName {fill:#161616;fill-opacity:1;}.icon1 {fill:#161616;fill-opacity:1;}.icon2 {fill:#E5B7D2;fill-opacity:1;}.icon3 {fill:#848282;fill-opacity:1;}.icon3-str {stroke:#848282;stroke-opacity:1;}</style><g opacity="1" transform="rotate(0 29.7743 238.4997)">
<svg width="379.028" height="60" x="29.7743" y="238.4997" version="1.1" preserveAspectRatio="none" viewBox="-2.9297 -29.3164 190.25390000000002 30.117200000000004">
  <g transform="matrix(1 0 0 1 0 0)" class="companyName"><path id="id-D6z1nYkh12" d="M10.84-2.44L10.84-2.44Q7.21 0.80 2.17 0.80L2.17 0.80Q-0.88 0.80-2.19-0.49L-2.19-0.49Q-2.93-1.19-2.93-2.97L-2.93-2.97Q-2.93-5.70 1.23-6.50L1.23-6.50Q2.54-6.76 4.38-6.76Q6.21-6.76 9.39-6.07L9.39-6.07Q11.09-7.97 13.45-11.65Q15.80-15.33 17.17-17.32Q18.54-19.32 20.27-21.40Q22.01-23.48 23.91-25.16L23.91-25.16Q27.75-28.59 31.52-28.59L31.52-28.59Q33.20-28.59 33.95-27.74Q34.69-26.89 34.69-25.73Q34.69-24.57 33.62-23.03Q32.56-21.48 31.16-20.29Q29.77-19.10 28.41-18.27Q27.05-17.44 26.27-17.44Q25.49-17.44 24.92-18.11Q24.36-18.77 24.36-19.38Q24.36-20 24.52-20.24Q24.69-20.49 24.86-20.49Q25.04-20.49 25.08-20.27L25.08-20.27Q25.70-20.47 27.08-21.49Q28.46-22.52 29.59-23.63Q30.72-24.75 30.72-25.03Q30.72-25.31 30.38-25.31Q30.04-25.31 29.45-25.08Q28.87-24.84 27.89-24.11Q26.91-23.38 25.78-22.23L25.78-22.23Q23.05-19.49 19.69-14.47L19.69-14.47Q18.91-13.34 17.48-11.17L17.48-11.17Q14.57-6.78 13.32-5.16L13.32-5.16Q23.34-2.52 27.64-2.52L27.64-2.52Q29.63-2.52 30.43-3.03L30.43-3.03Q30.72-3.20 30.82-3.20Q30.92-3.20 30.92-3.05Q30.92-2.89 30.74-2.58Q30.57-2.27 29.87-1.25Q29.18-0.23 28.85-0.04L28.85-0.04Q27.89 0.53 25.60 0.53Q23.30 0.53 21.22 0.20Q19.14-0.14 17.87-0.46Q16.60-0.78 14.11-1.50Q11.62-2.23 10.84-2.44ZM3.71-3.63L3.71-3.63Q1.15-3.63 1.15-3.03L1.15-3.03Q1.15-2.79 1.59-2.62Q2.03-2.44 2.64-2.44L2.64-2.44Q4.53-2.44 6.29-3.44L6.29-3.44Q4.79-3.63 3.71-3.63Z M46.58-6.13L46.58-6.13Q46.95-6.13 47.03-5.57Q47.11-5 47.11-4.39Q47.11-3.79 46.99-3.55L46.99-3.55Q46.43-2.46 44.51-0.89Q42.60 0.68 40.88 0.68L40.88 0.68Q39.82 0.68 38.93 0.05Q38.03-0.59 38.03-2.17Q38.03-3.75 38.87-5.27L38.87-5.27Q34.02 0.80 31.27 0.80L31.27 0.80Q30.18 0.80 29.50 0.02Q28.83-0.76 28.83-1.59Q28.83-2.42 29.06-3.31Q29.30-4.20 29.56-4.90Q29.82-5.61 30.34-6.64Q30.86-7.68 31.11-8.14Q31.37-8.61 31.92-9.56Q32.48-10.51 33.39-12.11Q34.30-13.71 34.89-14.48Q35.49-15.25 36.05-15.26Q36.62-15.27 37.05-14.80Q37.48-14.34 37.48-14.04Q37.48-13.75 36.17-11.41L36.17-11.41Q32.30-4.41 32.30-3.26L32.30-3.26Q32.30-2.97 32.52-2.97L32.52-2.97Q33.46-2.97 37.19-7.03Q40.92-11.09 41.50-12.24Q42.09-13.38 42.65-14.16Q43.20-14.94 43.48-15.12L43.48-15.12Q44.32-15.66 45.64-15.70L45.64-15.70Q45.86-15.70 45.98-15.68Q46.09-15.66 46.25-15.35Q46.41-15.04 46.41-14.86L46.41-14.86Q46.23-14.32 44.85-11.95Q43.48-9.59 43.32-9.28L43.32-9.28Q41.02-4.51 41.02-3.07L41.02-3.07Q41.02-2.25 41.64-2.25L41.64-2.25Q42.77-2.40 44.38-4.06L44.38-4.06Q44.96-4.67 45.54-5.29Q46.11-5.92 46.25-6.03Q46.39-6.13 46.58-6.13Z M46.17 0.47L46.17 0.47L44.92 0.20Q44.36 0.14 43.98-0.53L43.98-0.53Q43.89-0.70 43.86-0.74Q43.83-0.78 43.83-0.84Q43.83-0.90 43.87-1.01Q43.91-1.11 43.98-1.30Q44.06-1.48 44.12-1.68L44.12-1.68Q44.53-3.07 50.98-14.73Q57.42-26.39 57.72-26.75Q58.03-27.11 58.17-27.28Q58.32-27.44 58.51-27.56Q58.69-27.68 58.78-27.71Q58.87-27.75 59.13-27.84Q59.39-27.93 59.68-28.03Q59.96-28.13 60.27-28.29Q60.59-28.46 60.70-28.53Q60.82-28.59 61.01-28.59Q61.19-28.59 61.36-28.42Q61.52-28.24 61.52-27.97L61.52-27.97L61.52-27.83Q61.43-27.46 56.44-18.57Q51.45-9.69 51.00-8.85L51.00-8.85Q52.52-9.45 55.49-11.84Q58.46-14.22 58.49-15Q58.52-15.78 59.02-16.13Q59.53-16.48 60.13-16.48Q60.72-16.48 61.14-16.08Q61.56-15.68 61.54-14.78Q61.52-13.87 60.53-12.47Q59.53-11.07 58.14-9.88L58.14-9.88Q55.16-7.34 53.16-6.52L53.16-6.52Q54.75-2.25 56.80-2.25L56.80-2.25Q57.91-2.40 59.53-4.06L59.53-4.06Q60.14-4.67 60.70-5.28Q61.27-5.90 61.40-6.02Q61.52-6.13 61.76-6.13L61.76-6.13Q62.13-6.13 62.21-5.57Q62.29-5 62.29-4.39Q62.29-3.79 62.17-3.55L62.17-3.55Q61.60-2.46 59.69-0.89Q57.77 0.68 56.05 0.68L56.05 0.68Q54.82 0.68 54.10 0.21Q53.38-0.25 52.97-0.57Q52.56-0.88 52.13-1.42Q51.70-1.95 51.42-2.30Q51.13-2.66 50.77-3.28Q50.41-3.91 50.25-4.17Q50.10-4.43 49.79-5.03Q49.49-5.63 49.45-5.68L49.45-5.68Q49.10-4.96 48.67-4.12Q48.24-3.28 47.89-2.56Q47.54-1.84 47.25-1.24Q46.95-0.64 46.77-0.25Q46.58 0.14 46.56 0.16L46.56 0.16Q46.43 0.47 46.17 0.47Z M74.00-14.61L74.00-14.61Q74.00-13.32 72.96-12.34Q71.91-11.37 70.59-11.37L70.59-11.37Q70.16-11.37 70.02-11.57Q69.88-11.78 69.88-12.11Q69.88-12.44 69.96-12.75L69.96-12.75Q69.26-12.52 68.40-12.03Q67.54-11.54 66.29-10.59Q65.04-9.63 65.04-9.16L65.04-9.16Q65.04-9.00 65.50-9.00Q65.96-9.00 66.91-9.33Q67.87-9.65 68.25-9.65Q68.63-9.65 68.75-9.61L68.75-9.61Q69.00-9.47 69.30-9.01Q69.59-8.55 69.59-8.29Q69.59-8.03 69.08-7.60Q68.57-7.17 67.93-6.94Q67.29-6.72 67.07-6.60L67.07-6.60Q62.95-4.30 62.95-3.44L62.95-3.44Q62.95-1.91 65.55-1.91L65.55-1.91Q67.21-1.91 68.89-2.97L68.89-2.97Q70.31-3.87 71.46-4.79Q72.60-5.72 72.90-5.94Q73.20-6.15 73.36-6.15L73.36-6.15Q73.87-6.15 73.87-5.02Q73.87-3.89 73.73-3.53Q73.59-3.16 72.95-2.64L72.95-2.64Q68.77 0.76 65.04 0.76L65.04 0.76Q63.05 0.76 61.86 0.21L61.86 0.21Q59.67-0.78 59.67-2.83L59.67-2.83Q59.67-5.53 63.40-6.91L63.40-6.91Q62.66-7.25 62.44-7.76Q62.23-8.28 62.23-9.42Q62.23-10.57 63.29-11.85Q64.36-13.13 65.90-13.95L65.90-13.95Q69.34-15.80 72.03-15.80L72.03-15.80Q72.68-15.80 73.34-15.49Q74.00-15.18 74.00-14.61Z M91.37-20L91.37-20L91.93-20.14Q92.05-20.14 92.05-19.91Q92.05-19.69 91.38-19.18Q90.70-18.67 89.76-18.67Q88.81-18.67 88.27-19.22Q87.73-19.77 87.73-20.64L87.73-20.64Q87.73-22.50 90.16-24.33Q92.58-26.15 96.11-27.26Q99.65-28.36 102.89-28.36L102.89-28.36Q107.64-28.36 109.95-26.82Q112.27-25.27 112.27-22.68L112.27-22.68Q112.27-19.36 107.66-16.25L107.66-16.25Q105.23-14.61 102.42-13.63L102.42-13.63Q105.51-13.30 107.34-11.64L107.34-11.64Q108.73-10.39 108.73-8.46Q108.73-6.52 106.88-4.52Q105.04-2.52 101.97-1.20Q98.91 0.12 95.70 0.12L95.70 0.12Q92.01 0.12 90.27-1.50L90.27-1.50Q89.49-2.25 89.49-2.82Q89.49-3.40 89.79-4.04L89.79-4.04Q88.36-1.46 87.70-0.16L87.70-0.16Q87.40 0.43 86.51 0.43Q85.63 0.43 85.14-0.04Q84.65-0.51 84.65-1.09Q84.65-1.68 84.82-2.13L84.82-2.13Q85.70-4.43 91.03-12.92Q96.35-21.41 97.54-22.75L97.54-22.75Q98.16-23.52 100.37-23.52L100.37-23.52Q101.25-23.52 101.25-23.13L101.25-23.13Q101.25-22.83 98.65-18.73Q96.05-14.63 95.94-14.43L95.94-14.43Q98.65-15.21 101.49-16.57Q104.34-17.93 106.46-19.65Q108.57-21.37 108.57-22.75L108.57-22.75Q108.57-25.04 103.61-25.04L103.61-25.04Q98.42-25.04 93.61-22.29L93.61-22.29Q92.42-21.60 91.80-21.04Q91.17-20.47 91.17-20.23Q91.17-20 91.37-20ZM94.88-10.66L94.88-10.66Q94.53-10.66 94.10-11.48L94.10-11.48Q92.25-8.52 90.21-4.88L90.21-4.88Q91.13-6.15 92.89-6.15L92.89-6.15Q94.06-6.15 94.06-5.86L94.06-5.86Q94.06-5.74 93.81-5.64L93.81-5.64Q93.03-5.35 93.03-4.77L93.03-4.77Q93.03-3.36 96.02-3.36L96.02-3.36Q100.06-3.36 103.34-6.17L103.34-6.17Q105.10-7.66 105.10-8.77L105.10-8.77Q105.10-9.45 103.67-10.27L103.67-10.27Q102.01-11.19 98.61-11.19L98.61-11.19Q96.25-11.19 95.59-10.93Q94.92-10.66 94.88-10.66Z M116.11-11.88L115.29-10.64Q119.90-15.88 123.14-15.88L123.14-15.88Q123.95-15.88 124.46-15.40Q124.98-14.92 124.98-14.16Q124.98-13.40 123.90-11.61Q122.81-9.82 121.89-8.59L121.89-8.59Q121.41-7.97 120.79-7.97Q120.18-7.97 119.83-8.42Q119.49-8.87 119.49-9.47L119.49-9.47Q119.49-10.82 120.94-12.52L120.94-12.52L120.90-12.56Q120.25-12.50 117.71-10.02Q115.16-7.54 113.37-5.58Q111.58-3.61 109.49-0.80L109.49-0.80Q108.89 0.04 108.47 0.04Q108.05 0.04 107.35-0.22Q106.66-0.49 106.51-0.61Q106.37-0.72 106.37-1.00Q106.37-1.27 106.52-1.63Q106.68-1.99 107.10-2.66Q107.52-3.32 108.37-4.80Q109.22-6.29 111.02-9.30Q112.81-12.30 113.16-12.93L113.16-12.93Q113.91-14.22 114.38-14.80L114.38-14.80Q115.25-15.92 117.34-15.92L117.34-15.92Q117.81-15.92 117.81-15.33L117.81-15.33Q117.81-14.41 116.11-11.88L116.11-11.88Z M139.41-6.13L139.41-6.13Q139.79-6.13 139.86-5.57Q139.94-5 139.94-4.39Q139.94-3.79 139.82-3.55L139.82-3.55Q139.26-2.46 137.34-0.89Q135.43 0.68 133.71 0.68L133.71 0.68Q132.66 0.68 131.76 0.05Q130.86-0.59 130.86-2.17Q130.86-3.75 131.70-5.27L131.70-5.27Q126.86 0.80 124.10 0.80L124.10 0.80Q123.01 0.80 122.33 0.02Q121.66-0.76 121.66-1.59Q121.66-2.42 121.89-3.31Q122.13-4.20 122.39-4.90Q122.66-5.61 123.17-6.64Q123.69-7.68 123.95-8.14Q124.20-8.61 124.76-9.56Q125.31-10.51 126.22-12.11Q127.13-13.71 127.72-14.48Q128.32-15.25 128.89-15.26Q129.45-15.27 129.88-14.80Q130.31-14.34 130.31-14.04Q130.31-13.75 129.00-11.41L129.00-11.41Q125.14-4.41 125.14-3.26L125.14-3.26Q125.14-2.97 125.35-2.97L125.35-2.97Q126.29-2.97 130.02-7.03Q133.75-11.09 134.34-12.24Q134.92-13.38 135.48-14.16Q136.04-14.94 136.31-15.12L136.31-15.12Q137.15-15.66 138.48-15.70L138.48-15.70Q138.69-15.70 138.81-15.68Q138.93-15.66 139.08-15.35Q139.24-15.04 139.24-14.86L139.24-14.86Q139.06-14.32 137.69-11.95Q136.31-9.59 136.15-9.28L136.15-9.28Q133.85-4.51 133.85-3.07L133.85-3.07Q133.85-2.25 134.47-2.25L134.47-2.25Q135.61-2.40 137.21-4.06L137.21-4.06Q137.79-4.67 138.37-5.29Q138.95-5.92 139.08-6.03Q139.22-6.13 139.41-6.13Z M151.21-25.04L152.13-25.16L152.93-24.96Q153.11-24.96 153.24-24.79Q153.38-24.61 153.38-24.45Q153.38-24.30 152.97-23.61Q152.56-22.93 152.00-22.06Q151.45-21.19 151.41-21.11L151.41-21.11Q152.93-21.23 153.56-21.23Q154.20-21.23 154.43-21.14Q154.67-21.05 154.97-20.65Q155.27-20.25 155.53-20.05Q155.78-19.84 155.78-19.43Q155.78-19.02 155.28-18.74Q154.79-18.46 154.22-18.40L154.22-18.40Q149.69-17.95 149.22-17.93L149.22-17.93Q147.64-15.51 144.79-10.38Q141.95-5.25 141.78-3.96L141.78-3.96Q141.70-3.38 141.70-3.01L141.70-3.01Q141.70-2.25 142.50-2.25Q143.30-2.25 144.28-2.86Q145.25-3.48 146.07-4.20L146.07-4.20Q148.26-6.15 148.42-6.15L148.42-6.15Q148.93-6.15 148.93-4.39L148.93-4.39Q148.93-3.44 148.05-2.68L148.05-2.68Q146.07-0.98 144.73-0.12Q143.38 0.74 142.03 0.74L142.03 0.74Q141.74 0.74 141.48 0.68L141.48 0.68Q139.92 0.39 139.19-0.46Q138.46-1.31 138.47-2.75Q138.48-4.20 139.33-6.26Q140.18-8.32 141.46-10.64L141.46-10.64Q143.57-14.43 145.68-17.75L145.68-17.75L144.94-17.66Q142.68-17.40 142.30-17.40L142.30-17.40L142.13-17.40Q141.56-17.40 141.04-17.63Q140.51-17.85 140.51-18.18Q140.51-18.52 140.79-18.83Q141.07-19.14 141.13-19.32L141.13-19.32Q141.27-19.75 142.16-20.27Q143.05-20.80 143.50-20.83Q143.95-20.86 144.37-20.88Q144.79-20.90 145.30-20.92Q145.82-20.94 146.09-20.96L146.09-20.96L147.85-21.04Q149.49-23.50 150.11-24.20Q150.72-24.90 150.82-24.97Q150.92-25.04 151.21-25.04L151.21-25.04Z M162.19-14.84L162.19-14.84Q163.67-14.84 163.67-13.83L163.67-13.83Q163.67-13.28 163.42-13.03Q163.16-12.77 162.33-11.34Q161.50-9.90 160.50-7.67Q159.49-5.43 159.20-3.85L159.20-3.85Q159.14-3.65 159.14-3.30L159.14-3.30Q159.14-2.23 159.73-2.23Q160.31-2.23 161.11-2.78Q161.91-3.34 162.54-3.97Q163.16-4.61 163.76-5.27Q164.36-5.94 164.47-6.04Q164.59-6.13 164.82-6.13L164.82-6.13Q165.20-6.13 165.27-5.57Q165.35-5 165.35-4.39Q165.35-3.79 165.23-3.55L165.23-3.55Q164.67-2.44 162.74-0.88Q160.82 0.68 159.25 0.68Q157.68 0.68 156.93-0.27Q156.19-1.23 156.19-2.39Q156.19-3.55 156.58-4.43L156.58-4.43Q154.96-2.32 152.86-0.86Q150.76 0.61 149.43 0.61Q148.11 0.61 147.27-0.20L147.27-0.20Q146.19-1.19 146.19-2.96Q146.19-4.73 146.98-6.51Q147.77-8.30 149.06-9.78Q150.35-11.25 151.89-12.46L151.89-12.46Q155.14-15 157.87-15L157.87-15Q158.93-15 159.59-14.65Q160.25-14.30 160.43-13.77L160.43-13.77Q160.90-14.47 161.22-14.66Q161.54-14.84 162.19-14.84ZM159.59-12.68L159.59-12.68Q156.25-12.68 152.68-8.96L152.68-8.96Q151.41-7.64 150.34-5.78Q149.28-3.93 149.28-3.24Q149.28-2.56 149.67-2.56L149.67-2.56Q150.21-2.56 152.71-4.72Q155.21-6.88 156.04-7.89L156.04-7.89Q156.93-9.02 159.59-12.68Z M179.77-29.32Q180.70-29.32 181.42-28.76Q182.13-28.20 182.13-27.11Q182.13-26.02 180.92-23.68Q179.71-21.35 178.01-18.92Q176.31-16.48 174.16-13.75L174.16-13.75Q170.76-9.41 167.64-5.96L167.64-5.96Q167.62-5.72 167.47-5.09Q167.32-4.45 167.32-3.81Q167.32-3.16 167.92-2.65Q168.52-2.13 169.39-2.13Q170.27-2.13 171.28-2.75Q172.29-3.38 173.03-4.14L173.03-4.14Q174.98-6.15 175.45-6.15Q175.92-6.15 175.92-4.73L175.92-4.73L175.92-4.34Q175.92-3.57 175.64-3.22L175.64-3.22Q174.00-1.21 171.95-0.22Q169.90 0.76 168.07 0.76Q166.23 0.76 165.27-0.36Q164.32-1.48 164.32-3.44L164.32-3.44Q164.32-7.25 166.36-12.39Q168.40-17.54 170.96-21.15L170.96-21.15Q176.72-29.32 179.77-29.32L179.77-29.32ZM178.89-26.07L178.89-26.07Q178.89-26.37 178.69-26.37L178.69-26.37Q178.01-26.37 175.10-22.46Q172.19-18.55 170.89-16.23Q169.59-13.91 168.44-10.39L168.44-10.39Q170.74-13.13 174.81-18.92Q178.89-24.71 178.89-26.07Z M187.32-14.61L187.32-14.61Q187.32-13.32 186.28-12.34Q185.23-11.37 183.91-11.37L183.91-11.37Q183.48-11.37 183.34-11.57Q183.20-11.78 183.20-12.11Q183.20-12.44 183.28-12.75L183.28-12.75Q182.58-12.52 181.72-12.03Q180.86-11.54 179.61-10.59Q178.36-9.63 178.36-9.16L178.36-9.16Q178.36-9.00 178.82-9.00Q179.28-9.00 180.23-9.33Q181.19-9.65 181.57-9.65Q181.95-9.65 182.07-9.61L182.07-9.61Q182.32-9.47 182.62-9.01Q182.91-8.55 182.91-8.29Q182.91-8.03 182.40-7.60Q181.89-7.17 181.25-6.94Q180.61-6.72 180.39-6.60L180.39-6.60Q176.27-4.30 176.27-3.44L176.27-3.44Q176.27-1.91 178.87-1.91L178.87-1.91Q180.53-1.91 182.21-2.97L182.21-2.97Q183.63-3.87 184.78-4.79Q185.92-5.72 186.22-5.94Q186.52-6.15 186.68-6.15L186.68-6.15Q187.19-6.15 187.19-5.02Q187.19-3.89 187.05-3.53Q186.91-3.16 186.27-2.64L186.27-2.64Q182.09 0.76 178.36 0.76L178.36 0.76Q176.37 0.76 175.18 0.21L175.18 0.21Q172.99-0.78 172.99-2.83L172.99-2.83Q172.99-5.53 176.72-6.91L176.72-6.91Q175.98-7.25 175.76-7.76Q175.55-8.28 175.55-9.42Q175.55-10.57 176.61-11.85Q177.68-13.13 179.22-13.95L179.22-13.95Q182.66-15.80 185.35-15.80L185.35-15.80Q186.00-15.80 186.66-15.49Q187.32-15.18 187.32-14.61Z"/></g>
</svg>
</g><g opacity="1" transform="rotate(0 143.4827 111.4693)">
<svg width="151.6112" height="97.0304" x="143.4827" y="111.4693" version="1.1" preserveAspectRatio="none" viewBox="15 45.5 170.00144958496094 108.80000305175781">
  <g transform="matrix(1 0 0 1 0 0)" ><g><path d="M174 45.5H64c-6 0-10.9 4.2-10.9 10.1v68.5c0 6 4.9 10.1 10.9 10.1h39.7l-.8 10.7-5.5 7H41.5c2.4-1.9 4-4.9 4-8.1v-3.1c.3.6.8.8 1.9.8 3.2 0 5.7-2.6 5.7-5.7s-2.6-5.7-5.7-5.7c-1.1 0-1.7.4-1.9.8v-10.5H17.6v23.3c0 3.2 1.5 6 3.7 8.1H15v2.5h165.5V152h-40.6l-5.7-7.2-1.6-10.5H174c6 0 11-4.2 11-10.1V55.6c.1-5.9-5-10.1-11-10.1zm-128.5 88c.6-.5 1.2-.7 1.9-.7 1.8 0 3.2 1.4 3.2 3.2s-1.4 3.2-3.2 3.2c-.7 0-1.4-.3-1.9-.7v-5zM34.9 152h-7.2c-4.2 0-7.5-3.9-7.5-8.1v-20.8h22.9v20.8c-.1 4.2-4 8.1-8.2 8.1zm101.2 0H101l3.6-5.1h27.8l3.7 5.1zm-30.7-7.6l.8-10.1H130l1.5 10.1h-26.1zm77.1-20.3c0 4.6-4 7.6-8.5 7.6H64c-4.5 0-8.3-3.1-8.3-7.6v-7.6h126.9v7.6h-.1zm0-10.2H55.6V55.6c0-4.5 3.7-7.6 8.3-7.6h110c4.5 0 8.5 3.1 8.5 7.6v58.3h.1z" data-color="1" class="icon1"></path><path d="M119.1 128.4c2.8 0 5.1-2.2 5.1-5.1 0-2.8-2.3-5.1-5.1-5.1s-5.1 2.2-5.1 5.1c.1 2.8 2.3 5.1 5.1 5.1zm0-7.5c1.4 0 2.5 1.1 2.5 2.5s-1.1 2.5-2.5 2.5-2.5-1.1-2.5-2.5 1.1-2.5 2.5-2.5z" data-color="1" class="icon1"></path><path d="M25.2 115.6c.7 0 1.3-.6 1.3-1.3v-7c0-.7-.6-1.3-1.3-1.3s-1.3.6-1.3 1.3v7c0 .7.6 1.3 1.3 1.3z" data-color="1" class="icon1"></path><path d="M25.2 103.9c.7 0 1.3-.6 1.3-1.3v-1.9c0-.7-.6-1.3-1.3-1.3s-1.3.6-1.3 1.3v1.9c0 .7.6 1.3 1.3 1.3z" data-color="1" class="icon1"></path><path d="M30.7 117.8c.7 0 1.3-.6 1.3-1.3v-13.9c0-.7-.6-1.3-1.3-1.3s-1.3.6-1.3 1.3v13.9c0 .6.5 1.3 1.3 1.3z" data-color="1" class="icon1"></path><path d="M30.7 99.2c.7 0 1.3-.6 1.3-1.3V96c0-.7-.6-1.3-1.3-1.3s-1.3.6-1.3 1.3v1.9c0 .7.5 1.3 1.3 1.3z" data-color="1" class="icon1"></path><path d="M36.1 115.6c.7 0 1.3-.6 1.3-1.3v-7c0-.7-.6-1.3-1.3-1.3s-1.3.6-1.3 1.3v7c0 .7.6 1.3 1.3 1.3z" data-color="1" class="icon1"></path><path d="M36.1 103.9c.7 0 1.3-.6 1.3-1.3v-1.9c0-.7-.6-1.3-1.3-1.3s-1.3.6-1.3 1.3v1.9c0 .7.6 1.3 1.3 1.3z" data-color="1" class="icon1"></path></g></g>
</svg>
</g></svg></svg>