<svg version="1.1" preserveAspectRatio="none" xmlns="http://www.w3.org/2000/svg" width="500" height="500" viewBox="0 0 500 500"><rect width="100%" height="100%" fill="#EDECEB" fill-opacity="1"/><svg viewBox="33.663 46.7152 389.3901 368.0425" width="333" height="314.74388408950307" x="83.5px" y="92.6281px" xmlns="http://www.w3.org/2000/svg" xmlns:xlink="http://www.w3.org/1999/xlink" preserveAspectRatio="none"><defs></defs><style>.companyName {fill:#5B4B42;fill-opacity:1;}.icon1 {fill:#B3D0D9;fill-opacity:1;}.icon2 {fill:#99A08E;fill-opacity:1;}.icon3 {fill:#DFC4B5;fill-opacity:1;}.icon3-str {stroke:#DFC4B5;stroke-opacity:1;}</style><g opacity="1" transform="rotate(0 33.663 46.7152)">
<svg width="389.3901" height="292.0425" x="33.663" y="46.7152" version="1.1" preserveAspectRatio="none" viewBox="20 40 160 120">
  <g transform="matrix(1 0 0 1 0 0)" ><g><path d="M173.3 143.6v-14h-13.6V99.9h-30v29.9H100V99.9h29.7V40H70.3v29.9H41V56H27v-6.8h-7v7.1h6.7v14.1h13.8v59.4h29.7V160h59.5v-29.9H159v13.8h14v6.7h7v-7.1l-6.7.1zM99.8 99.7H70.5V70.2h29.3v29.5z" data-color="1" class="icon1"></path></g></g>
</svg>
</g><g opacity="1" transform="rotate(0 33.663 378.7577)">
<svg width="389.3901" height="36" x="33.663" y="378.7577" version="1.1" preserveAspectRatio="none" viewBox="2.4 -26.4 289.88000000000005 26.8">
  <g transform="matrix(1 0 0 1 0 0)" class="companyName"><path id="id-D6z1nYkh12" d="M22.80 0L2.40 0L2.40-0.64L5.64-2.24L5.64-24.16L2.40-25.76L2.40-26.40L13.48-26.40L13.48-25.76L9.84-24.16L9.84-2.20L19.32-2.20L22.16-9.08L22.80-9.08L22.80 0Z M40.36 0.40L40.36 0.40Q37.60 0.40 35.42-0.50Q33.24-1.40 32-3.42Q30.76-5.44 30.76-8.76L30.76-8.76L30.76-20.44L27.84-21.76L27.84-22.40L37.64-22.40L37.64-21.76L34.72-20.44L34.72-8.96Q34.72-4.96 36.48-3.40Q38.24-1.84 41.20-1.84L41.20-1.84Q42.92-1.84 44.34-2.50Q45.76-3.16 46.60-4.54Q47.44-5.92 47.44-8.08L47.44-8.08L47.44-20.52L44.08-21.76L44.08-22.40L52.64-22.40L52.64-21.76L49.80-20.48L49.80-8.68Q49.80-5.44 48.60-3.44Q47.40-1.44 45.28-0.52Q43.16 0.40 40.36 0.40Z M67.20 0L57.44 0L57.44-0.64L60.36-1.96L60.36-20.44L57.44-21.76L57.44-22.40L67.20-22.40L67.20-21.76L64.32-20.44L64.32-1.96L67.20-0.64L67.20 0ZM81.36 0L75.04 0L64.32-11.40L73.60-20.64L71.08-21.76L71.08-22.40L79.12-22.40L79.12-21.76L76.84-20.88L68.24-12.64L78.56-1.72L81.36-0.64L81.36 0Z M103.56 0L84.96 0L84.96-0.64L87.84-1.96L87.84-20.44L84.96-21.76L84.96-22.40L102.56-22.40L102.56-16.64L101.92-16.64L99.84-20.40L91.80-20.40L91.80-12.60L97.64-12.60L99-15.36L99.64-15.36L99.64-7.88L99-7.88L97.64-10.60L91.80-10.60L91.80-2L100.72-2L102.92-6.52L103.56-6.52L103.56 0Z M130.28 0L118.60 0L118.60-0.64L121.84-2.24L121.84-24.16L118.60-25.76L118.60-26.40L129.36-26.40Q132.04-26.40 134.18-25.74Q136.32-25.08 137.54-23.78Q138.76-22.48 138.76-20.48L138.76-20.48Q138.76-18.44 137.36-16.74Q135.96-15.04 133.32-14.32L133.32-14.32Q136.96-13.84 139.02-12.10Q141.08-10.36 141.08-7.68L141.08-7.68Q141.08-5.48 139.68-3.74Q138.28-2 135.84-1Q133.40 0 130.28 0L130.28 0ZM128.20-24.20L128.20-24.20L126.04-24.20L126.04-14.68L128.40-14.68Q131.24-14.68 132.80-15.92Q134.36-17.16 134.36-19.32L134.36-19.32Q134.36-24.20 128.20-24.20ZM129.68-12.56L129.68-12.56L126.04-12.56L126.04-2.20L129.96-2.20Q133.04-2.20 134.82-3.66Q136.60-5.12 136.60-7.40L136.60-7.40Q136.60-10.08 134.80-11.32Q133-12.56 129.68-12.56Z M154.84 0L145.36 0L145.36-0.64L148.28-1.96L148.28-20.44L145.36-21.76L145.36-22.40L155.04-22.40Q158.72-22.40 160.86-20.90Q163-19.40 163-16.76L163-16.76Q163-14.84 161.82-13.46Q160.64-12.08 158.44-11.28L158.44-11.28L164.60-1.88L167.24-0.64L167.24 0L160.96 0L154.64-10.20L152.20-10.20L152.20-2L154.84-0.64L154.84 0ZM154.08-20.44L154.08-20.44L152.20-20.44L152.20-12.16L154.24-12.16Q156.40-12.16 157.64-13.28Q158.88-14.40 158.88-16.32L158.88-16.32Q158.88-18.36 157.62-19.40Q156.36-20.44 154.08-20.44Z M181.92 0.40L181.92 0.40Q179.16 0.40 176.98-0.50Q174.80-1.40 173.56-3.42Q172.32-5.44 172.32-8.76L172.32-8.76L172.32-20.44L169.40-21.76L169.40-22.40L179.20-22.40L179.20-21.76L176.28-20.44L176.28-8.96Q176.28-4.96 178.04-3.40Q179.80-1.84 182.76-1.84L182.76-1.84Q184.48-1.84 185.90-2.50Q187.32-3.16 188.16-4.54Q189-5.92 189-8.08L189-8.08L189-20.52L185.64-21.76L185.64-22.40L194.20-22.40L194.20-21.76L191.36-20.48L191.36-8.68Q191.36-5.44 190.16-3.44Q188.96-1.44 186.84-0.52Q184.72 0.40 181.92 0.40Z M214.56 0L203.36 0L203.36-0.64L206.96-1.96L206.96-20.40L201.08-20.40L198.96-15.52L198.32-15.52L198.32-22.40L219.60-22.40L219.60-15.52L218.96-15.52L216.80-20.40L210.92-20.40L210.92-1.96L214.56-0.64L214.56 0Z M229.96 0L222.52 0L222.52-0.64L224.56-1.72L233.44-22.60L235.52-22.60L244.32-1.80L246.68-0.64L246.68 0L237.40 0L237.40-0.64L240.20-1.80L237.72-7.72L229.48-7.72L227.04-1.76L229.96-0.64L229.96 0ZM233.56-17.68L230.32-9.72L236.88-9.72L233.56-17.68Z M268.64 0L250.28 0L250.28-0.64L253.16-1.96L253.16-20.44L250.28-21.76L250.28-22.40L260.36-22.40L260.36-21.76L257.12-20.44L257.12-2L265.48-2L268-7.88L268.64-7.88L268.64 0Z M292.28 0L273.68 0L273.68-0.64L276.56-1.96L276.56-20.44L273.68-21.76L273.68-22.40L291.28-22.40L291.28-16.64L290.64-16.64L288.56-20.40L280.52-20.40L280.52-12.60L286.36-12.60L287.72-15.36L288.36-15.36L288.36-7.88L287.72-7.88L286.36-10.60L280.52-10.60L280.52-2L289.44-2L291.64-6.52L292.28-6.52L292.28 0Z"/></g>
</svg>
</g></svg></svg>